<svg xmlns="http://www.w3.org/2000/svg" viewBox="0 0 1024 1024" width="1024" height="1024">
  <!-- Gradient definitions -->
  <defs>
    <linearGradient id="grad1" x1="0%" y1="0%" x2="0%" y2="100%">
      <stop offset="0%" style="stop-color:#4ADE80;stop-opacity:1" />
      <stop offset="100%" style="stop-color:#22D3EE;stop-opacity:1" />
    </linearGradient>
    <linearGradient id="grad2" x1="0%" y1="0%" x2="0%" y2="100%">
      <stop offset="0%" style="stop-color:#F97316;stop-opacity:1" />
      <stop offset="100%" style="stop-color:#EF4444;stop-opacity:1" />
    </linearGradient>
    <linearGradient id="grad3" x1="0%" y1="0%" x2="0%" y2="100%">
      <stop offset="0%" style="stop-color:#FDB913;stop-opacity:1" />
      <stop offset="100%" style="stop-color:#F97316;stop-opacity:1" />
    </linearGradient>
  </defs>
  
  <!-- Left pillar (cyan to teal gradient) -->
  <polygon points="140,420 280,170 420,420 280,840" fill="url(#grad1)" style="opacity:0.95"/>
  
  <!-- Middle pillar (orange to red gradient) -->
  <polygon points="390,420 530,170 670,420 530,1020" fill="url(#grad2)" style="opacity:0.95"/>
  
  <!-- Lightning bolt (orange gradient) -->
  <path d="M 850 165 L 690 520 L 800 520 L 700 860 L 850 520 L 750 520 Z" fill="url(#grad3)" style="opacity:0.95"/>
  
  <!-- Small accent squares (matching lightning color) -->
  <rect x="695" y="165" width="60" height="60" fill="url(#grad3)" style="opacity:0.8"/>
  <rect x="800" y="240" width="45" height="45" fill="url(#grad3)" style="opacity:0.7"/>
  <rect x="860" y="165" width="50" height="50" fill="url(#grad3)" style="opacity:0.85"/>
  <rect x="730" y="340" width="35" height="35" fill="url(#grad3)" style="opacity:0.6"/>
  <rect x="805" y="580" width="50" height="50" fill="url(#grad3)" style="opacity:0.75"/>
</svg>

